<?xml version="1.0" encoding="UTF-8" standalone="no"?><!DOCTYPE svg PUBLIC "-//W3C//DTD SVG 1.1//EN" "http://www.w3.org/Graphics/SVG/1.1/DTD/svg11.dtd"><svg width="100%" height="100%" viewBox="0 0 500 500" version="1.1" xmlns="http://www.w3.org/2000/svg" xmlns:xlink="http://www.w3.org/1999/xlink" xml:space="preserve" xmlns:serif="http://www.serif.com/" style="fill-rule:evenodd;clip-rule:evenodd;stroke-linejoin:round;stroke-miterlimit:2;"><g><path d="M249.436,0.003l2.382,0c11.393,0.031 22.557,0.269 33.826,2.067c0.705,0.106 1.409,0.212 2.135,0.325c46.518,7.197 92.602,27.284 127.415,59.438c0.849,0.774 1.701,1.541 2.574,2.29c3.643,3.116 7.049,6.455 10.436,9.844c0.975,0.975 1.956,1.942 2.937,2.916c4.015,3.988 7.672,8.14 11.194,12.577c0.539,0.644 1.081,1.28 1.629,1.917c20.09,23.423 35.087,51.855 44.567,81.106c0.18,0.547 0.36,1.094 0.546,1.657c4.878,14.933 8.052,30.212 10.067,45.783c0.164,1.16 0.164,1.16 0.332,2.344c0.513,4.718 0.421,9.484 0.44,14.225c0.003,0.53 0.005,1.058 0.008,1.604c0.012,2.814 0.022,5.629 0.027,8.443c0.006,2.285 0.018,4.572 0.039,6.857c0.501,58.503 -20.276,114.385 -71.515,173.973c-0.902,0.916 -1.807,1.83 -2.714,2.743c-0.88,0.887 -1.758,1.778 -2.636,2.667c-3.807,3.813 -7.799,7.252 -12.004,10.614c-0.689,0.584 -1.372,1.172 -2.052,1.766c-9.027,7.87 -18.922,14.525 -29.163,20.707c-0.504,0.304 -1.008,0.609 -1.527,0.923c-13.591,8.147 -27.891,14.93 -42.797,20.3c-0.591,0.215 -1.184,0.428 -1.793,0.649c-7.165,2.566 -14.399,4.762 -21.772,6.645c-0.629,0.164 -1.259,0.327 -1.907,0.495c-13.724,3.378 -27.136,5.179 -41.265,5.109c-1.543,0.002 -3.085,0.005 -4.628,0.009c-3.203,0.005 -6.405,-0.002 -9.608,-0.016c-4.048,-0.018 -8.099,-0.007 -12.148,0.011c-3.177,0.011 -6.352,0.007 -9.529,-0.001c-1.492,-0.002 -2.982,0 -4.474,0.008c-10.992,0.043 -21.334,-1.29 -32.088,-3.547c-0.499,-0.103 -0.997,-0.209 -1.512,-0.315c-2.398,-0.507 -4.776,-1.063 -7.15,-1.675c-1.059,-0.27 -1.059,-0.27 -2.141,-0.547c-14.797,-3.889 -28.991,-9.189 -42.885,-15.565c-0.561,-0.258 -1.122,-0.514 -1.699,-0.779c-17.504,-8.141 -33.967,-18.817 -48.869,-31.057c-0.337,-0.281 -0.68,-0.561 -1.029,-0.851c-7.205,-5.948 -14.015,-12.265 -20.645,-18.842c-0.887,-0.88 -1.78,-1.757 -2.666,-2.635c-3.814,-3.808 -7.254,-7.799 -10.618,-12.004c-0.581,-0.689 -1.169,-1.373 -1.768,-2.05c-7.865,-9.027 -14.52,-18.921 -20.707,-29.161c-0.306,-0.505 -0.605,-1.008 -0.923,-1.528c-8.147,-13.59 -14.927,-27.888 -20.302,-42.792c-0.318,-0.888 -0.318,-0.888 -0.648,-1.794c-6.649,-18.562 -12.449,-39.18 -12.593,-59.021c-0.006,-0.567 -0.012,-1.135 -0.018,-1.719c-0.019,-1.871 -0.031,-3.741 -0.044,-5.612c0,-0.65 -0.006,-1.299 -0.012,-1.968c-0.019,-3.454 -0.031,-6.907 -0.044,-10.362c-0.014,-2.81 -0.032,-5.618 -0.07,-8.428c-0.187,-17.158 0.363,-33.503 4.065,-50.296c0.093,-0.406 0.181,-0.813 0.274,-1.233c8.939,-40.467 28.092,-80.219 56.371,-110.827c0.775,-0.85 1.548,-1.704 2.292,-2.579c3.121,-3.639 6.455,-7.047 9.843,-10.43c0.975,-0.974 1.942,-1.96 2.916,-2.939c3.989,-4.015 8.14,-7.673 12.579,-11.193c0.644,-0.537 1.28,-1.079 1.917,-1.629c23.422,-20.087 51.86,-35.081 81.113,-44.563c0.547,-0.181 1.094,-0.355 1.658,-0.543c12.397,-4.051 25.021,-6.954 37.906,-8.976c0.598,-0.094 1.198,-0.187 1.814,-0.288c2.02,-0.294 4.041,-0.556 6.067,-0.805c0.443,-0.05 0.885,-0.106 1.342,-0.163c9.746,-1.16 19.441,-1.31 29.248,-1.28l0.004,0.001Z" style="fill:#7a502d;fill-rule:nonzero;"/><path d="M249.436,0.003l2.382,0c11.393,0.031 22.557,0.269 33.826,2.067c0.705,0.106 1.409,0.212 2.135,0.325c46.518,7.197 92.602,27.284 127.415,59.438c0.849,0.774 1.701,1.541 2.574,2.29c3.643,3.116 7.049,6.455 10.436,9.844c0.975,0.975 1.956,1.942 2.937,2.916c4.015,3.988 7.672,8.14 11.194,12.577c0.539,0.644 1.081,1.28 1.629,1.917c20.09,23.423 35.087,51.855 44.567,81.106c0.18,0.547 0.36,1.094 0.546,1.657c4.878,14.933 8.052,30.212 10.067,45.783c0.164,1.16 0.164,1.16 0.332,2.344c0.513,4.718 0.421,9.484 0.44,14.225c0.003,0.53 0.005,1.058 0.008,1.604c0.012,2.814 0.022,5.629 0.027,8.443c0.006,2.285 0.018,4.572 0.039,6.857c0.501,58.503 -20.276,114.385 -71.515,173.973c-0.902,0.916 -1.807,1.83 -2.714,2.743c-0.88,0.887 -1.758,1.778 -2.636,2.667c-3.807,3.813 -7.799,7.252 -12.004,10.614c-0.689,0.584 -1.372,1.172 -2.052,1.766c-9.027,7.87 -18.922,14.525 -29.163,20.707c-0.504,0.304 -1.008,0.609 -1.527,0.923c-13.591,8.147 -27.891,14.93 -42.797,20.3c-0.591,0.215 -1.184,0.428 -1.793,0.649c-7.165,2.566 -14.399,4.762 -21.772,6.645c-0.629,0.164 -1.259,0.327 -1.907,0.495c-13.724,3.378 -27.136,5.179 -41.265,5.109c-1.543,0.002 -3.085,0.005 -4.628,0.009c-3.203,0.005 -6.405,-0.002 -9.608,-0.016c-4.048,-0.018 -8.099,-0.007 -12.148,0.011c-3.177,0.011 -6.352,0.007 -9.529,-0.001c-1.492,-0.002 -2.982,0 -4.474,0.008c-10.992,0.043 -21.334,-1.29 -32.088,-3.547c-0.499,-0.103 -0.997,-0.209 -1.512,-0.315c-2.398,-0.507 -4.776,-1.063 -7.15,-1.675c-1.059,-0.27 -1.059,-0.27 -2.141,-0.547c-14.797,-3.889 -28.991,-9.189 -42.885,-15.565c-0.561,-0.258 -1.122,-0.514 -1.699,-0.779c-17.504,-8.141 -33.967,-18.817 -48.869,-31.057c-0.337,-0.281 -0.68,-0.561 -1.029,-0.851c-7.205,-5.948 -14.015,-12.265 -20.645,-18.842c-0.887,-0.88 -1.78,-1.757 -2.666,-2.635c-3.814,-3.808 -7.254,-7.799 -10.618,-12.004c-0.581,-0.689 -1.169,-1.373 -1.768,-2.05c-7.865,-9.027 -14.52,-18.921 -20.707,-29.161c-0.306,-0.505 -0.605,-1.008 -0.923,-1.528c-8.147,-13.59 -14.927,-27.888 -20.302,-42.792c-0.318,-0.888 -0.318,-0.888 -0.648,-1.794c-6.649,-18.562 -12.449,-39.18 -12.593,-59.021c-0.006,-0.567 -0.012,-1.135 -0.018,-1.719c-0.019,-1.871 -0.031,-3.741 -0.044,-5.612c0,-0.65 -0.006,-1.299 -0.012,-1.968c-0.019,-3.454 -0.031,-6.907 -0.044,-10.362c-0.014,-2.81 -0.032,-5.618 -0.07,-8.428c-0.187,-17.158 0.363,-33.503 4.065,-50.296c0.093,-0.406 0.181,-0.813 0.274,-1.233c8.939,-40.467 28.092,-80.219 56.371,-110.827c0.775,-0.85 1.548,-1.704 2.292,-2.579c3.121,-3.639 6.455,-7.047 9.843,-10.43c0.975,-0.974 1.942,-1.96 2.916,-2.939c3.989,-4.015 8.14,-7.673 12.579,-11.193c0.644,-0.537 1.28,-1.079 1.917,-1.629c23.422,-20.087 51.86,-35.081 81.113,-44.563c0.547,-0.181 1.094,-0.355 1.658,-0.543c12.397,-4.051 25.021,-6.954 37.906,-8.976c0.598,-0.094 1.198,-0.187 1.814,-0.288c2.02,-0.294 4.041,-0.556 6.067,-0.805c0.443,-0.05 0.885,-0.106 1.342,-0.163c9.746,-1.16 19.441,-1.31 29.248,-1.28l0.004,0.001Zm-172.65,128.59c-7.885,9.047 -13.229,20.192 -15.257,32.03c-0.106,0.563 -0.207,1.124 -0.318,1.705c-2.772,18.496 1.292,36.554 12.148,51.812c1.216,1.551 2.484,3.046 3.776,4.535c0.68,0.825 0.68,0.825 1.374,1.669c4.138,4.843 8.89,8.573 14.233,12.026c0.436,0.216 1.012,0.503 1.012,0.503c0,0 -0.076,0.382 -0.244,0.818c-0.213,0.58 -0.43,1.161 -0.649,1.76c-0.212,0.565 -0.418,1.13 -0.636,1.712c-0.956,2.76 -1.774,5.555 -2.603,8.353c-0.157,0.524 -0.313,1.049 -0.482,1.589c-2.665,8.797 -2.665,8.797 -4.22,17.843c-0.206,1.72 -0.449,3.405 -0.743,5.111c-1.41,8.442 -1.729,16.732 -1.697,25.283c0.006,2.213 -0.013,4.426 -0.037,6.638c-0.044,14.925 1.935,30.7 8.122,44.457c0.748,1.675 1.453,3.349 2.135,5.051c3.096,7.611 6.697,14.553 11.28,21.37c0.318,0.471 0.631,0.942 0.956,1.427c4.419,6.516 9.25,12.419 14.775,18.027c1.143,1.162 2.265,2.342 3.386,3.523c14.734,15.346 35.513,29.058 56.039,35.147c0.909,0.274 23.753,7.627 33.702,9.527c1.142,0.223 1.142,0.223 2.307,0.451c12.255,2.239 24.592,2.655 37.023,2.593c0.996,-0.003 0.996,-0.003 2.015,-0.005c16.718,0.096 16.718,0.096 33.201,-2.33c1.374,-0.317 2.748,-0.582 4.134,-0.833c36.064,-6.616 70.945,-24.042 94.633,-52.544c0.261,-0.305 0.523,-0.61 0.791,-0.924c5.561,-6.51 9.997,-13.471 14.192,-20.923c0.264,-0.469 0.531,-0.939 0.803,-1.422c3.349,-5.978 6.25,-12.075 8.684,-18.483c0.327,-0.862 0.661,-1.72 1,-2.578c5.74,-14.55 6.661,-29.513 6.681,-44.974c0.002,-0.672 0.005,-1.346 0.008,-2.04c0.019,-11.447 -0.996,-22.556 -3.716,-33.696c-0.136,-0.57 -0.269,-1.139 -0.41,-1.727c-0.269,-1.133 -0.542,-2.264 -0.816,-3.394c-0.332,-1.382 -0.647,-2.764 -0.953,-4.151c-1.674,-7.265 -4.225,-14.118 -6.868,-21.077c0.409,-0.165 0.828,-0.338 1.277,-0.491c2.117,-0.94 3.852,-2.191 5.664,-3.609c0.356,-0.278 0.712,-0.557 1.078,-0.843c9.64,-7.665 16.26,-17.032 21.279,-28.182c0.326,-0.716 0.653,-1.432 0.989,-2.169c0.948,-2.362 1.614,-4.685 2.209,-7.155c0.105,-0.415 0.212,-0.83 0.319,-1.258c3.971,-16.121 2.165,-35.52 -6.179,-50.046c-0.498,-0.81 -1.002,-1.618 -1.515,-2.419c-0.271,-0.428 -0.542,-0.857 -0.821,-1.299c-2.365,-3.653 -5.054,-6.839 -8.113,-9.937c-0.581,-0.639 -0.581,-0.639 -1.175,-1.29c-9.826,-10.503 -24.131,-16.886 -38.424,-17.501c-9.974,-0.3 -18.565,0.807 -27.822,4.366c-1.052,0.395 -2.105,0.853 -3.161,1.238c-6.082,2.433 -11.221,6.503 -16.191,10.69c-0.476,0.391 -0.951,0.783 -1.442,1.185c-6.176,5.246 -15.195,19.433 -15.195,19.859c-0.725,-0.279 -1.045,-0.378 -1.793,-0.666c-8.258,-3.133 -16.553,-5.724 -25.184,-7.602c-1.173,-0.255 -2.342,-0.528 -3.513,-0.8c-6.348,-1.4 -12.562,-1.786 -19.045,-1.988c0.702,-0.807 1.403,-1.613 2.107,-2.418c0.391,-0.45 0.782,-0.899 1.185,-1.362c0.749,-0.844 1.528,-1.664 2.327,-2.462c-0.103,-1.608 -0.103,-1.608 -0.625,-3.121c-4.875,-2.438 -12.574,-0.226 -17.48,1.248c-4.271,1.608 -8.421,3.544 -12.485,5.617c0.27,-0.49 0.541,-0.98 0.819,-1.485c2.722,-4.931 2.722,-4.931 2.926,-10.374c-0.751,-0.883 -0.751,-0.883 -2.926,-0.859c-9.638,0.138 -18.209,6.654 -25.165,12.718c-0.503,0.579 -1.006,1.158 -1.522,1.755c-2.76,2.356 -6.225,2.763 -9.709,3.502c-3.724,0.805 -7.384,1.776 -11.048,2.819c-0.568,0.157 -1.137,0.314 -1.722,0.476c-3.01,0.856 -5.603,1.777 -8.399,2.682c-1.271,0.412 -2.17,1.055 -3.807,1.25c-0.221,-0.796 -0.221,-0.796 -0.448,-1.609c-0.898,-2.394 -2.148,-4.308 -3.65,-6.35c-0.277,-0.382 -0.556,-0.763 -0.842,-1.156c-10.115,-13.684 -24.525,-23.668 -41.452,-26.621c-4.13,-0.52 -8.246,-0.598 -12.406,-0.625c-0.624,-0.006 -1.245,-0.012 -1.886,-0.018c-18.193,0.079 -33.569,9.51 -45.793,22.452l-0.002,-0.001Z" style="fill:#56a5d7;fill-rule:nonzero;"/></g></svg>